<svg width="48" height="48" viewBox="0 0 48 48" fill="none" xmlns="http://www.w3.org/2000/svg">
<path d="M18 25.5C18 27.0913 18.6321 28.6174 19.7574 29.7426C20.8826 30.8679 22.4087 31.5 24 31.5C25.5913 31.5 27.1174 30.8679 28.2426 29.7426C29.3679 28.6174 30 27.0913 30 25.5C30 23.9087 29.3679 22.3826 28.2426 21.2574C27.1174 20.1321 25.5913 19.5 24 19.5C22.4087 19.5 20.8826 20.1321 19.7574 21.2574C18.6321 22.3826 18 23.9087 18 25.5Z" stroke="white" stroke-width="2" stroke-linecap="round" stroke-linejoin="round"/>
<path d="M24 13.5C27.1826 13.5 30.2348 14.7643 32.4853 17.0147C34.7357 19.2652 36 22.3174 36 25.5C36 30.844 28.2 42.11 25.178 45.93C25.0376 46.1077 24.8588 46.2514 24.6549 46.3501C24.4511 46.4488 24.2275 46.5001 24.001 46.5001C23.7745 46.5001 23.5509 46.4488 23.3471 46.3501C23.1433 46.2514 22.9644 46.1077 22.824 45.93C19.8 42.108 12 30.844 12 25.5C12 22.3174 13.2643 19.2652 15.5147 17.0147C17.7652 14.7643 20.8174 13.5 24 13.5V13.5Z" stroke="white" stroke-width="2" stroke-linecap="round" stroke-linejoin="round"/>
<path d="M24 1.5V7.5" stroke="white" stroke-width="2" stroke-linecap="round" stroke-linejoin="round"/>
<path d="M38 6.0061L34.5 10.8801" stroke="white" stroke-width="2" stroke-linecap="round" stroke-linejoin="round"/>
<path d="M10 6.0061L13.5 10.8801" stroke="white" stroke-width="2" stroke-linecap="round" stroke-linejoin="round"/>
<path d="M1.5 18L6.944 19.75" stroke="white" stroke-width="2" stroke-linecap="round" stroke-linejoin="round"/>
<path d="M46.5 18L41.056 19.75" stroke="white" stroke-width="2" stroke-linecap="round" stroke-linejoin="round"/>
</svg>
