<svg width="48" height="48" viewBox="0 0 48 48" fill="none" xmlns="http://www.w3.org/2000/svg">
<path d="M4.5 20V37.54C4.5 38.3357 4.81607 39.0987 5.37868 39.6613C5.94129 40.2239 6.70435 40.54 7.5 40.54H16.76C17.5554 40.5407 18.3179 40.8572 18.88 41.42L24 46.5L29.12 41.38C29.6821 40.8172 30.4446 40.5007 31.24 40.5H40.5C41.2956 40.5 42.0587 40.1839 42.6213 39.6213C43.1839 39.0587 43.5 38.2956 43.5 37.5V20" stroke="white" stroke-width="2" stroke-linecap="round" stroke-linejoin="round"/>
<path d="M4.5 30H43.5" stroke="white" stroke-width="2" stroke-linecap="round" stroke-linejoin="round"/>
<path d="M1.5 15C1.58558 16.4352 2.216 17.7835 3.26243 18.7694C4.30886 19.7552 5.69229 20.3043 7.13 20.3043C8.56771 20.3043 9.95114 19.7552 10.9976 18.7694C12.044 17.7835 12.6744 16.4352 12.76 15C12.76 16.4905 13.3521 17.92 14.4061 18.9739C15.46 20.0279 16.8895 20.62 18.38 20.62C19.8705 20.62 21.3 20.0279 22.3539 18.9739C23.4079 17.92 24 16.4905 24 15C24.0856 16.4352 24.716 17.7835 25.7624 18.7694C26.8089 19.7552 28.1923 20.3043 29.63 20.3043C31.0677 20.3043 32.4511 19.7552 33.4976 18.7694C34.544 17.7835 35.1744 16.4352 35.26 15C35.26 16.4905 35.8521 17.92 36.9061 18.9739C37.96 20.0279 39.3895 20.62 40.88 20.62C42.3705 20.62 43.8 20.0279 44.8539 18.9739C45.9079 17.92 46.5 16.4905 46.5 15V15L43.76 2.68C43.6872 2.34656 43.5028 2.04791 43.2374 1.83338C42.972 1.61884 42.6413 1.50124 42.3 1.5H5.7C5.3587 1.50124 5.02804 1.61884 4.76259 1.83338C4.49715 2.04791 4.31281 2.34656 4.24 2.68L1.5 15Z" stroke="white" stroke-width="2" stroke-linecap="round" stroke-linejoin="round"/>
</svg>
