<svg width="48" height="48" viewBox="0 0 48 48" fill="none" xmlns="http://www.w3.org/2000/svg">
<path d="M7.5 46.5L3.5 41.46C2.21384 39.8685 1.5084 37.8862 1.5 35.84V25.5C1.5 24.7044 1.81607 23.9413 2.37868 23.3787C2.94129 22.8161 3.70435 22.5 4.5 22.5V22.5C5.29565 22.5 6.05871 22.8161 6.62132 23.3787C7.18393 23.9413 7.5 24.7044 7.5 25.5V33.26" stroke="white" stroke-width="2" stroke-linecap="round" stroke-linejoin="round"/>
<path d="M16.5001 46.2201V40.2201C16.5037 38.4453 15.9741 36.7104 14.9801 35.2401L12.7001 31.8001C12.5025 31.4716 12.2401 31.1869 11.9288 30.9633C11.6174 30.7396 11.2638 30.5818 10.8894 30.4995C10.5151 30.4171 10.1279 30.4119 9.75144 30.4842C9.37502 30.5566 9.01729 30.7049 8.7001 30.9201V30.9201C8.13466 31.3003 7.72725 31.8736 7.55421 32.5326C7.38116 33.1917 7.45437 33.8912 7.7601 34.5001L10.5001 39.0001" stroke="white" stroke-width="2" stroke-linecap="round" stroke-linejoin="round"/>
<path d="M40.5 46.5L44.5 41.46C45.7862 39.8685 46.4916 37.8862 46.5 35.84V25.5C46.5 24.7044 46.1839 23.9413 45.6213 23.3787C45.0587 22.8161 44.2956 22.5 43.5 22.5C42.7044 22.5 41.9413 22.8161 41.3787 23.3787C40.8161 23.9413 40.5 24.7044 40.5 25.5V33.26" stroke="white" stroke-width="2" stroke-linecap="round" stroke-linejoin="round"/>
<path d="M31.5 46.2201V40.2201C31.4965 38.4453 32.026 36.7104 33.02 35.2401L35.3 31.8001C35.4976 31.4716 35.76 31.1869 36.0714 30.9633C36.3827 30.7396 36.7363 30.5818 37.1107 30.4995C37.485 30.4171 37.8723 30.4119 38.2487 30.4842C38.6251 30.5566 38.9828 30.7049 39.3 30.9201V30.9201C39.8655 31.3003 40.2729 31.8736 40.4459 32.5326C40.619 33.1917 40.5458 33.8912 40.24 34.5001L37.5 39.0001" stroke="white" stroke-width="2" stroke-linecap="round" stroke-linejoin="round"/>
<path d="M24 1.5L12 8.36L24 15.22L36 8.36L24 1.5Z" stroke="white" stroke-width="2" stroke-linecap="round" stroke-linejoin="round"/>
<path d="M15 25.5001L24 30.6401V15.2201L12 8.36011V19.5001" stroke="white" stroke-width="2" stroke-linecap="round" stroke-linejoin="round"/>
<path d="M33 25.5001L24 30.6401V15.2201L36 8.36011V19.5001" stroke="white" stroke-width="2" stroke-linecap="round" stroke-linejoin="round"/>
</svg>
